<svg xmlns="http://www.w3.org/2000/svg"  viewBox="0 0 72 72" width="64px" height="64px"><path d="M 40 12 C 33.241 12 26.9765 15.453859 23.3125 21.005859 C 23.0655 20.998859 22.820172 20.998859 22.576172 21.005859 C 16.684172 21.167859 11.847828 25.175172 10.423828 30.701172 C 6.4158281 33.483172 4 38.03 4 43 C 4 51.271 10.729 58 19 58 L 52 58 C 60.822 58 68 50.822 68 42 C 68 36.054 64.695406 30.666109 59.566406 27.912109 C 57.657406 18.815109 49.493 12 40 12 z M 40 20 C 48.112 20 52.524156 27.502656 52.160156 33.597656 C 56.776156 34.562656 60 37.584 60 42 C 60 46.411 56.411 50 52 50 L 19 50 C 15.141 50 12 46.86 12 43 C 12 37.504 16.877125 36.461813 17.828125 35.757812 C 17.545125 32.931813 18.989 29 23 29 C 24.445 29 26.770969 29.801813 27.667969 30.132812 C 28.215969 28.945813 30.863 20 40 20 z M 37 28.189453 C 36.53375 28.189453 36.0675 28.392828 35.75 28.798828 L 31.339844 34.435547 C 30.524844 35.477547 31.266844 37 32.589844 37 L 35 37 L 35 44 C 35 45.105 35.896 46 37 46 C 38.104 46 39 45.105 39 44 L 39 37 L 41.410156 37 C 42.733156 37 43.475156 35.477547 42.660156 34.435547 L 38.25 28.798828 C 37.9325 28.392828 37.46625 28.189453 37 28.189453 z"/></svg>